<?xml version="1.0" encoding="UTF-8"?>
<svg width="75px" height="75px" viewBox="0 0 75 75" version="1.1" xmlns="http://www.w3.org/2000/svg" xmlns:xlink="http://www.w3.org/1999/xlink">
    <!-- Generator: Sketch 40.3 (33839) - http://www.bohemiancoding.com/sketch -->
    <title>error</title>
    <desc>Created with Sketch.</desc>
    <defs></defs>
    <g id="Page-1" stroke="none" stroke-width="1" fill="none" fill-rule="evenodd">
        <g id="error">
            <g id="cancel" fill="#F05228">
                <g id="Layer_1">
                    <path d="M37.4706674,0 C16.7764637,0 0,16.7764637 0,37.4706674 C0,58.1648712 16.7764637,74.9413349 37.4706674,74.9413349 C58.1648712,74.9413349 74.9413349,58.1648712 74.9413349,37.4706674 C74.9413349,16.7764637 58.1650468,0 37.4706674,0 L37.4706674,0 Z" id="Shape"></path>
                </g>
            </g>
            <g id="forbidden-mark" transform="translate(21.000000, 21.000000)" fill="#FFFFFF">
                <g id="Capa_1">
                    <path d="M29.3074,0.2094 C29.0282,-0.0698 28.5712,-0.0698 28.292,0.2094 L17.9316,10.5698 C17.6524,10.849 17.1954,10.849 16.9162,10.5698 L6.556,0.2094 C6.2768,-0.0698 5.8198,-0.0698 5.5406,0.2094 L0.2094,5.5404 C-0.0698,5.8196 -0.0698,6.2766 0.2094,6.5558 L10.5698,16.9162 C10.849,17.1954 10.849,17.6524 10.5698,17.9316 L0.2094,28.292 C-0.0698,28.5712 -0.0698,29.0282 0.2094,29.3074 L5.5404,34.6384 C5.8196,34.9176 6.2766,34.9176 6.5558,34.6384 L16.9162,24.278 C17.1954,23.9988 17.6524,23.9988 17.9316,24.278 L28.2918,34.6382 C28.571,34.9174 29.028,34.9174 29.3072,34.6382 L34.6382,29.3072 C34.9174,29.028 34.9174,28.571 34.6382,28.2918 L24.278,17.9316 C23.9988,17.6524 23.9988,17.1954 24.278,16.9162 L34.6382,6.556 C34.9174,6.2768 34.9174,5.8198 34.6382,5.5406 L29.3074,0.2094 L29.3074,0.2094 Z" id="Shape"></path>
                </g>
            </g>
        </g>
    </g>
</svg>