<?xml version="1.0" encoding="UTF-8"?>
<svg width="512px" height="512px" viewBox="0 0 512 512" version="1.1" xmlns="http://www.w3.org/2000/svg" xmlns:xlink="http://www.w3.org/1999/xlink">
    <!-- Generator: Sketch 52.2 (67145) - http://www.bohemiancoding.com/sketch -->
    <title>Artboard@2x</title>
    <desc>Created with Sketch.</desc>
    <g id="Artboard" stroke="none" stroke-width="1" fill="none" fill-rule="evenodd">
        <rect id="Rectangle" fill="#1E1E20" x="0" y="0" width="512" height="512" rx="120"></rect>
        <g id="checkid-logo-white" transform="translate(67.000000, 211.000000)" fill="#FFFFFF">
            <path d="M30.8627608,88.9716033 C9.98422825,88.9241576 -0.00919565217,70.2697012 0.0490108696,44.2851358 C0.112597826,16.1464402 12.7204239,0.83763587 31.407163,0.880190217 C40.2887934,0.899755434 48.934663,3.4544837 54.2309675,7.77595108 L51.7970542,12.8404076 C47.0769457,8.77377717 38.7768913,6.47339674 31.2790109,6.4567663 C13.9765109,6.41763587 5.98167391,22.2439402 5.93276087,43.918288 C5.88042391,67.1138316 14.2646087,83.356875 30.8754783,83.3950271 C39.8725434,83.4150816 47.2628153,79.8820925 52.8100434,75.204538 L54.6442825,80.2792663 C48.6358042,84.8286684 40.89825,88.9941033 30.8627608,88.9716033" id="Fill-1"></path>
            <path d="M66.2755109,87.7836521 L66.4721413,0.325173913 L72.1245325,0.337891304 L72.0648587,26.8282175 L71.5894238,33.1653913 C74.7115434,29.7502826 80.7214891,24.4402826 89.1423587,24.4593587 C101.830891,24.4872392 107.925946,32.6136521 107.890728,48.2037066 L107.801707,87.8770762 L102.03388,87.8643587 L102.118989,49.9660434 C102.148826,36.9101738 98.7048587,29.5502283 87.8618153,29.5262609 C80.9411087,29.5106087 75.8556196,33.809087 72.0394238,37.982837 L71.9279021,87.7963696 L66.2755109,87.7836521 Z" id="Fill-3"></path>
            <path d="M143.57387,29.397962 C131.231641,29.3700816 126.128543,41.5269292 126.101152,53.6950271 L160.129611,53.7718207 C160.156859,41.6037229 156.262402,29.4263316 143.57387,29.397962 Z M126.090391,58.6381792 C126.049793,76.6372012 134.222674,84.260788 145.642402,84.2862229 C153.716478,84.3043207 160.417076,79.8835597 163.76762,77.3557337 L165.603326,81.9232337 C160.751152,85.2077446 153.705717,89.2474729 145.284848,89.2283967 C130.635391,89.195625 120.509413,78.1461684 120.558326,56.3446467 C120.603326,36.3176903 129.281478,24.549212 143.930935,24.5824729 C159.272511,24.6172012 165.700174,38.7007337 165.665446,54.2917663 L165.655174,58.7276903 L126.090391,58.6381792 Z" id="Fill-5" fill-rule="nonzero"></path>
            <path d="M220.042516,83.8204238 C216.461103,86.220587 209.879853,89.3740109 201.805288,89.355913 C188.655016,89.3265653 178.177842,80.6841196 178.231158,56.9813479 C178.279092,35.5598804 188.800288,24.6835762 201.719201,24.7124347 C207.602951,24.7256413 214.751103,26.1358043 219.703549,29.5690109 L217.847299,34.2548804 C213.23969,31.2022175 207.936538,29.9236304 201.707951,29.9094458 C190.403168,29.8840109 183.689853,40.3890653 183.652679,56.993087 C183.609636,76.0060762 190.512245,84.2606413 201.816538,84.2860762 C209.198495,84.3027066 214.741321,81.7802609 218.784473,78.8738479 L220.042516,83.8204238 Z" id="Fill-7"></path>
            <polygon id="Fill-9" points="264.671854 88.2302283 240.749462 56.6143043 238.096417 56.609413 238.025495 88.1705542 232.488538 88.1583262 232.685167 0.699358696 238.222613 0.712076087 238.137505 38.4837066 237.86995 54.7071847 262.504028 26.1170217 269.425712 26.1326738 245.370278 53.710337 271.823429 88.2458804"></polygon>
            <polygon id="Fill-11" points="281.049163 88.2670108 281.24237 2.70978262 296.352587 2.74353262 296.15987 88.3007608"></polygon>
            <path d="M338.540137,16.2741033 L328.273288,16.2511141 L328.144158,73.9235054 C330.795245,74.8171467 335.98345,75.7156792 341.520896,75.7279075 C351.671332,75.7508967 359.876495,69.3051358 359.930788,44.7150816 C359.977745,24.054212 354.112092,16.3093207 338.540137,16.2741033 M340.682038,89.6686141 C329.377745,89.6431793 320.1547,87.3413316 313.008016,85.0438858 L313.193396,2.78192934 L339.147637,2.84013587 C361.755733,2.89100542 376.035896,13.0634511 375.964483,44.877962 C375.902363,72.6366033 364.905245,89.7233967 340.682038,89.6686141" id="Fill-13" fill-rule="nonzero"></path>
        </g>
    </g>
</svg>