<?xml version="1.0" encoding="UTF-8"?>
<svg width="1206px" height="1206px" viewBox="0 0 1206 1206" version="1.1" xmlns="http://www.w3.org/2000/svg" xmlns:xlink="http://www.w3.org/1999/xlink">
    <!-- Generator: Sketch 52.2 (67145) - http://www.bohemiancoding.com/sketch -->
    <title>Group</title>
    <desc>Created with Sketch.</desc>
    <g id="Page-1" stroke="none" stroke-width="1" fill="none" fill-rule="evenodd">
        <g id="Group">
            <rect id="Rectangle" fill="#FFFFFF" x="0" y="0" width="1206" height="1206"></rect>
            <g id="fingerprint-preview" transform="translate(262.000000, 262.000000)" fill="#000000" opacity="0.5">
                <g id="Page-1">
                    <g id="fingerprint-preview">
                        <path d="M181.15625,354.333633 C173.790117,354.333633 167.849258,360.263836 167.849258,367.640625 C167.849258,375.013418 173.782125,380.943621 181.15625,380.943621 C188.529043,380.943621 194.463242,375.013418 194.463242,367.640625 C194.463242,360.274492 188.533039,354.333633 181.15625,354.333633 Z" id="Path"></path>
                        <path d="M119.882812,0 L13.3203125,0 C5.96483594,0 0,5.96350391 0,13.3203125 L0,119.882812 C0,127.239621 5.96483594,133.203125 13.3203125,133.203125 C20.6757891,133.203125 26.640625,127.239621 26.640625,119.882812 L26.640625,26.640625 L119.882812,26.640625 C127.238289,26.640625 133.203125,20.6771211 133.203125,13.3203125 C133.203125,5.96350391 127.238289,0 119.882812,0 Z" id="Path"></path>
                        <path d="M668.679687,0 L562.117188,0 C554.761711,0 548.796875,5.96350391 548.796875,13.3203125 C548.796875,20.6771211 554.761711,26.640625 562.117188,26.640625 L655.359375,26.640625 L655.359375,119.882812 C655.359375,127.239621 661.324211,133.203125 668.679687,133.203125 C676.035164,133.203125 682,127.239621 682,119.882812 L682,13.3203125 C682,5.96350391 676.035164,0 668.679687,0 Z" id="Path"></path>
                        <path d="M119.882812,655.359375 L26.640625,655.359375 L26.640625,562.117188 C26.640625,554.760379 20.6757891,548.796875 13.3203125,548.796875 C5.96483594,548.796875 0,554.760379 0,562.117188 L0,668.679687 C0,676.035164 5.96483594,682 13.3203125,682 L119.882812,682 C127.238289,682 133.203125,676.035164 133.203125,668.679687 C133.203125,661.324211 127.238289,655.359375 119.882812,655.359375 Z" id="Path"></path>
                        <path d="M668.679687,548.796875 C661.324211,548.796875 655.359375,554.760379 655.359375,562.117188 L655.359375,655.359375 L562.117188,655.359375 C554.761711,655.359375 548.796875,661.324211 548.796875,668.679687 C548.796875,676.035164 554.761711,682 562.117188,682 L668.679687,682 C676.035164,682 682,676.035164 682,668.679687 L682,562.117188 C682,554.760379 676.035164,548.796875 668.679687,548.796875 Z" id="Path"></path>
                        <path d="M364.148039,35.8076641 C348.905605,34.2491875 333.094395,34.2491875 317.851961,35.8076641 C310.533781,36.5562656 305.20832,43.0965391 305.95559,50.4147187 C306.702859,57.7328984 313.241801,63.0623555 320.562645,62.3097578 C334.010832,60.9337695 347.989168,60.9337695 361.437355,62.3097578 C361.898238,62.3563789 362.355125,62.3803555 362.808016,62.3803555 C369.554754,62.3803555 375.34243,57.2720156 376.04441,50.4147187 C376.793012,43.0965391 371.466219,36.5562656 364.148039,35.8076641 Z" id="Path"></path>
                        <path d="M436.228246,612.117645 C433.364379,605.341602 425.54802,602.171367 418.771977,605.036566 C394.142719,615.447723 367.977629,620.726562 341,620.726562 C259.14668,620.726562 186.417773,571.707812 155.713121,495.847301 C152.954484,489.027301 145.191406,485.737184 138.368742,488.497152 C131.550074,491.257121 128.258625,499.022863 131.018594,505.841531 C164.901473,589.551703 246.678867,647.367187 341,647.367187 C371.560793,647.367187 401.217137,641.379707 429.147168,629.572582 C435.923211,626.708715 439.093445,618.892355 436.228246,612.117645 Z" id="Path"></path>
                        <path d="M127.875,354.320312 C120.519523,354.320312 114.554688,360.283816 114.554688,367.640625 L114.554688,420.921875 C114.554688,428.278684 120.519523,434.242188 127.875,434.242188 C135.230477,434.242188 141.195312,428.278684 141.195312,420.921875 L141.195312,367.640625 C141.195312,360.283816 135.230477,354.320312 127.875,354.320312 Z" id="Path"></path>
                        <path d="M270.30777,59.505832 C267.441238,52.7324531 259.627543,49.5622187 252.850168,52.42875 C168.838957,87.9740039 114.554688,169.873945 114.554688,261.078125 L114.554688,314.359375 C114.554688,321.716184 120.519523,327.679687 127.875,327.679687 C135.230477,327.679687 141.195312,321.716184 141.195312,314.359375 L141.195312,261.078125 C141.195312,180.599461 189.09782,108.330105 263.230687,76.9634336 C270.005398,74.0969023 273.174301,66.280543 270.30777,59.505832 Z" id="Path"></path>
                        <path d="M554.125,387.621094 C546.769523,387.621094 540.804687,393.584598 540.804687,400.941406 L540.804687,420.921875 C540.804687,480.779363 514.29993,536.975098 468.083773,575.099164 C462.407988,579.779922 461.603441,588.175715 466.284199,593.8515 C470.966289,599.524621 479.359418,600.331832 485.036535,595.649742 C537.408008,552.446641 567.445312,488.760895 567.445312,420.921875 L567.445312,400.941406 C567.445312,393.584598 561.480477,387.621094 554.125,387.621094 Z" id="Path"></path>
                        <path d="M429.1485,52.42875 C422.371125,49.5608867 414.55743,52.7324531 411.69223,59.5071641 C408.827031,66.281875 411.995934,74.0982344 418.770645,76.9634336 C528.540676,123.394047 540.632855,226.286801 540.736754,268.368332 C540.74075,269.731 540.743414,270.784637 540.804687,271.726383 L540.804687,331.009766 L540.804687,331.116328 C540.804687,338.473137 546.769523,344.383359 554.125,344.383359 C561.480477,344.383359 567.445312,338.366574 567.445312,331.009766 L567.445312,271.068359 C567.445312,174.076504 522.001734,91.7036914 429.1485,52.42875 Z" id="Path"></path>
                        <path d="M510.64084,226.228191 C506.074637,204.00325 497.295219,183.168949 484.546348,164.306055 C480.426375,158.212012 472.147801,156.609578 466.051094,160.728219 C459.957051,164.846859 458.354617,173.128098 462.473258,179.223473 C473.260047,195.182539 480.684789,212.799984 484.545016,231.589617 C485.841082,237.891457 491.38766,242.232547 497.578941,242.232547 C498.467406,242.232547 499.370523,242.143301 500.273641,241.956816 C507.478598,240.47693 512.122059,233.43448 510.64084,226.228191 Z" id="Path"></path>
                        <path d="M437.773402,117.531777 C369.313656,71.2463555 277.14109,80.1443242 218.614301,138.687098 C169.54893,187.739148 168.707086,234.223043 168.030414,271.573199 C167.6015,295.670977 168.030414,259.185309 167.835938,314.359375 C167.835938,321.716184 173.800773,327.679687 181.15625,327.679687 C188.511727,327.679687 194.476562,321.716184 194.476562,314.359375 L194.476562,281.235754 C195.54352,240.467605 193.055285,201.910629 237.451887,157.526016 C286.972813,107.990437 364.945926,100.452473 422.85332,139.602203 C428.944699,143.722176 437.22727,142.123738 441.348574,136.027031 C445.469879,129.932988 443.868777,121.65175 437.773402,117.531777 Z" id="Path"></path>
                        <path d="M441.347242,545.971637 C437.22727,539.876262 428.946031,538.277824 422.850656,542.397797 C398.245375,559.033535 370.435227,567.483941 342.332031,567.602492 C266.913754,567.920848 194.476562,508.28048 194.476562,420.921875 C194.476562,413.565066 188.511727,407.601562 181.15625,407.601562 C173.800773,407.601562 167.835937,413.565066 167.835937,420.921875 C167.835937,521.983086 250.588379,594.097926 341.91777,594.097926 C376.181609,594.097926 409.3705,583.669453 437.773402,564.466891 C443.868777,560.346918 445.468547,552.06568 441.347242,545.971637 Z" id="Path"></path>
                        <path d="M500.84375,267.738281 C493.488273,267.738281 487.523438,273.701785 487.523438,281.058594 L487.523438,420.921875 C487.523438,450.221234 478.861238,478.526898 462.47459,502.776527 C458.355949,508.871902 459.958383,517.151809 466.053758,521.270449 C472.12116,525.371773 480.411723,523.813297 484.54768,517.691281 C503.923406,489.020641 514.164062,455.557352 514.164062,420.921875 L514.164062,281.058594 C514.164062,273.701785 508.199227,267.738281 500.84375,267.738281 Z" id="Path"></path>
                        <path d="M341,514.164062 C289.590254,514.164062 247.757812,472.39023 247.757812,420.921875 L247.757812,261.078125 C247.757812,248.505082 250.226066,236.313 255.091977,224.840215 C257.963836,218.068168 254.802926,210.247813 248.030879,207.375953 C241.256168,204.502762 233.438477,207.666336 230.566617,214.437051 C224.296746,229.218602 221.117188,244.90993 221.117188,261.078125 L221.117188,420.921875 C221.117188,487.051898 274.806039,540.804688 341,540.804688 C348.355477,540.804688 354.320312,534.841184 354.320312,527.484375 C354.320312,520.127566 348.355477,514.164062 341,514.164062 Z" id="Path"></path>
                        <path d="M448.068672,429.319 C440.875703,427.841777 433.822598,432.482574 432.342711,439.690195 C428.682289,457.532754 419.882891,473.827492 406.894254,486.814797 C401.692672,492.016379 401.692672,500.450801 406.894254,505.653715 C412.097168,510.855297 420.528926,510.855297 425.733172,505.653715 C442.418195,488.967359 453.729805,468.00918 458.441199,445.044961 C459.918422,437.838672 455.274961,430.797555 448.068672,429.319 Z" id="Path"></path>
                        <path d="M341,141.195312 C324.851785,141.195312 309.160457,144.373539 294.364254,150.642078 C287.589543,153.511273 284.424637,161.328965 287.293832,168.103676 C290.164359,174.877055 297.982051,178.044625 304.754098,175.172766 C316.246863,170.304191 328.440277,167.835937 341,167.835937 C392.413742,167.835937 434.242188,209.664383 434.242188,261.078125 L434.242188,380.960938 L434.242188,381.094141 C434.242188,388.450949 440.207023,394.414453 447.5625,394.414453 C454.917977,394.414453 460.882812,388.450949 460.882812,381.094141 L460.882812,380.960938 L460.882812,261.078125 C460.882812,194.974742 407.103383,141.195312 341,141.195312 Z" id="Path"></path>
                        <path d="M341,194.476562 C304.275898,194.476562 274.398438,224.354023 274.398438,261.078125 L274.398438,380.960938 C274.398438,388.317746 280.363273,394.28125 287.71875,394.28125 C295.074227,394.28125 301.039062,388.317746 301.039062,380.960938 L301.039062,261.078125 C301.039062,239.043664 318.965539,221.117188 341,221.117188 C363.034461,221.117188 380.960938,239.043664 380.960938,261.078125 C380.960938,268.434934 386.925773,274.398438 394.28125,274.398438 C401.636727,274.398438 407.601562,268.434934 407.601562,261.078125 C407.601562,224.354023 377.724102,194.476562 341,194.476562 Z" id="Path"></path>
                        <path d="M407.565598,407.40975 C407.467027,401.679352 407.424402,410.133754 407.601562,341.001332 C407.601562,333.644523 401.636727,327.68102 394.28125,327.68102 C386.925773,327.68102 381.094141,333.644523 381.094141,341.001332 C380.923641,407.565598 380.858371,396.011559 381.062172,407.866637 C381.30993,422.313848 381.277961,428.294668 377.818676,436.457355 C371.536816,451.294852 357.084277,460.882812 341,460.882812 C324.922383,460.882812 310.468512,451.29352 304.179992,436.452027 C301.309465,429.678648 293.49577,426.513742 286.718395,429.38427 C279.945016,432.254797 276.780109,440.072488 279.649305,446.845867 C290.121734,471.556379 314.202195,487.523438 341,487.523438 C367.807129,487.523438 391.888922,471.555047 402.349363,446.845867 C408.011828,433.485594 407.833336,423.111734 407.565598,407.40975 Z" id="Path"></path>
                        <path d="M341,247.757812 C333.644523,247.757812 327.679687,253.721316 327.679687,261.078125 L327.679687,420.921875 C327.679687,428.278684 333.644523,434.242188 341,434.242188 C348.355477,434.242188 354.320312,428.278684 354.320312,420.921875 L354.320312,261.078125 C354.320312,253.721316 348.355477,247.757812 341,247.757812 Z" id="Path"></path>
                    </g>
                </g>
            </g>
        </g>
    </g>
</svg>