<?xml version="1.0" encoding="UTF-8"?>
<svg width="86px" height="21px" viewBox="0 0 86 21" version="1.1" xmlns="http://www.w3.org/2000/svg" xmlns:xlink="http://www.w3.org/1999/xlink">
    <!-- Generator: Sketch 52.2 (67145) - http://www.bohemiancoding.com/sketch -->
    <title>brand</title>
    <desc>Created with Sketch.</desc>
    <g id="Page-1" stroke="none" stroke-width="1" fill="none" fill-rule="evenodd">
        <g id="registro---01" transform="translate(-437.000000, -15.000000)" fill="#FFFFFF">
            <g id="Group-2">
                <g id="brand" transform="translate(437.000000, 15.000000)">
                    <path d="M7.02168633,20.7600408 C2.27154399,20.7489701 -0.0020921325,16.3962636 0.0111506211,10.3331984 C0.0256174948,3.76750272 2.8940647,0.19544837 7.14554502,0.205377717 C9.16623342,0.209942935 11.1332831,0.806046197 12.3382624,1.81438859 L11.784515,2.99609511 C10.7106279,2.04721467 8.82225569,1.51045924 7.11638871,1.5065788 C3.1798411,1.49744837 1.36090994,5.19025272 1.34978157,10.2476005 C1.33787422,15.659894 3.24538717,19.4499375 7.02457972,19.4588397 C9.07153104,19.463519 10.7529157,18.6391549 12.0149834,17.5477255 L12.4322971,18.7318288 C11.0652888,19.793356 9.30489286,20.7652908 7.02168633,20.7600408" id="Fill-1"></path>
                    <path d="M15.0785554,20.4828522 L15.1232914,0.075873913 L16.4092852,0.0788413043 L16.3957086,6.2599174 L16.2875409,7.7385913 C16.9978644,6.94173259 18.3652065,5.70273259 20.2810657,5.7071837 C23.1678747,5.71368913 24.5545802,7.60985216 24.5465678,11.2475315 L24.5263142,20.5046511 L23.2140575,20.5016837 L23.2334208,11.6587435 C23.2402091,8.61237389 22.456661,6.89505327 19.9897252,6.88946086 C18.4151729,6.8858087 17.2581568,7.88878697 16.3899218,8.86266197 L16.3645492,20.4858196 L15.0785554,20.4828522 Z" id="Fill-3"></path>
                    <path d="M32.6649545,6.85952447 C29.8569343,6.85301904 28.695912,9.68961682 28.6896801,12.5288397 L36.4316046,12.5467582 C36.4378038,9.70753534 35.5517634,6.86614404 32.6649545,6.85952447 Z M28.6872319,13.6822418 C28.6779953,17.8820136 30.5374337,19.6608505 33.135573,19.6667853 C34.9725321,19.6710082 36.4970067,18.6394973 37.2592997,18.0496712 L37.6769472,19.1154212 C36.5730134,19.8818071 34.9700839,20.8244103 33.0542246,20.8199592 C29.7212795,20.8123125 27.4174855,18.234106 27.4286139,13.1470842 C27.438852,8.47412774 29.4132464,5.72814947 32.7461915,5.73591034 C36.236603,5.74401361 37.6989813,9.0301712 37.6910802,12.6680788 L37.6887433,13.7031277 L28.6872319,13.6822418 Z" id="Fill-5" fill-rule="nonzero"></path>
                    <path d="M50.0625831,19.5580989 C49.2477642,20.118137 47.7504428,20.8539359 45.9133724,20.849713 C42.9215116,20.8428652 40.537816,18.8262946 40.5499459,13.2956478 C40.5608517,8.29730543 42.9545629,5.75950111 45.8937865,5.76623476 C47.2324175,5.7693163 48.8587166,6.09835433 49.9854635,6.89943587 L49.5631421,7.99280543 C48.5148502,7.28051741 47.3083129,6.98218043 45.891227,6.97887068 C43.3192394,6.97293587 41.7918714,9.42411524 41.7834138,13.298387 C41.7736209,17.7347511 43.3440556,19.6608163 45.9159319,19.6667511 C47.5954247,19.6706315 48.856491,19.0820609 49.7763616,18.4038978 L50.0625831,19.5580989 Z" id="Fill-7"></path>
                    <polygon id="Fill-9" points="60.2163477 20.5870533 54.7736872 13.2100043 54.1700844 13.208863 54.1539487 20.5731293 52.8942176 20.5702761 52.9389535 0.163183696 54.1987956 0.166151087 54.1794323 8.97953154 54.1185602 12.7650098 59.7231387 6.09397173 61.2979134 6.09762389 55.8249839 12.532412 61.8434257 20.5907054"></polygon>
                    <polygon id="Fill-11" points="63.9424021 20.5956359 63.9863594 0.632282611 67.4241336 0.640157611 67.3802879 20.6035109"></polygon>
                    <path d="M77.0223592,3.79729076 L74.6865152,3.79192663 L74.6571365,17.2488179 C75.2602939,17.4573342 76.4406792,17.6669918 77.7005214,17.6698451 C80.0098799,17.6752092 81.8766629,16.1711984 81.8890152,10.433519 C81.8996987,5.61264947 80.565185,3.80550815 77.0223592,3.79729076 M77.50967,20.9226766 C74.9377939,20.9167418 72.8394292,20.379644 71.2134641,19.8435734 L71.2556404,0.649116846 L77.1605734,0.66269837 C82.3042145,0.674567933 85.5531404,3.04813859 85.5368931,10.4715245 C85.5227599,16.9485408 83.0207701,20.9354592 77.50967,20.9226766" id="Fill-13" fill-rule="nonzero"></path>
                </g>
            </g>
        </g>
    </g>
</svg>