<?xml version="1.0" encoding="UTF-8"?>
<svg width="25px" height="25px" viewBox="0 0 25 25" version="1.1" xmlns="http://www.w3.org/2000/svg" xmlns:xlink="http://www.w3.org/1999/xlink">
    <!-- Generator: Sketch 52.2 (67145) - http://www.bohemiancoding.com/sketch -->
    <title>cancel</title>
    <desc>Created with Sketch.</desc>
    <g id="Page-2" stroke="none" stroke-width="1" fill="none" fill-rule="evenodd">
        <g id="registro-02" transform="translate(-161.000000, -424.000000)" fill="#E33333" fill-rule="nonzero">
            <g id="Group-6" transform="translate(161.000000, 424.000000)">
                <g id="cancel">
                    <path d="M14.7133059,12.4910416 L16.9226789,10.281599 C17.2281283,9.97535353 17.2281283,9.48155011 16.9226789,9.17687776 L15.8179924,8.07136989 C15.5125431,7.76669755 15.0187552,7.76591096 14.7133059,8.07136989 L12.5031463,10.281599 L10.2945598,8.07294307 C9.98832388,7.76669755 9.49374943,7.76669755 9.18830011,8.07136989 L8.08361358,9.17687776 C7.77816426,9.48155011 7.77895083,9.97692671 8.08518671,10.2823856 L10.2937732,12.4910416 L8.08903214,14.6957647 C7.78358282,15.0012236 7.78358282,15.495027 8.08903214,15.8004859 L9.19371867,16.9059938 C9.49916799,17.2106662 9.99295588,17.2114527 10.2984052,16.9059938 L12.5030589,14.7012708 L14.7233564,16.9224248 C15.0295923,17.2286703 15.5241668,17.2286703 15.8296161,16.9232114 L16.9343026,15.8184901 C17.2397519,15.5130312 17.2389654,15.0184412 16.933516,14.7121956 L14.7133059,12.4910416 Z M12.5,0 C5.59605879,0 0,5.59632226 0,12.4996067 C0,19.4037651 5.59605879,25 12.5,25 C19.4039412,25 25,19.4037651 25,12.4996067 C25,5.59710885 19.4038538,0 12.5,0 Z M12.5,22.6562254 C6.89065701,22.6562254 2.34378824,18.1092136 2.34378824,12.4996941 C2.34378824,6.89017462 6.89065701,2.34307539 12.5,2.34307539 C18.109343,2.34307539 22.6562118,6.89008722 22.6562118,12.4996067 C22.6562118,18.1091262 18.109343,22.6562254 12.5,22.6562254 Z" id="Shape"></path>
                </g>
            </g>
        </g>
    </g>
</svg>