<?xml version="1.0" encoding="UTF-8"?>
<svg width="61px" height="80px" viewBox="0 0 61 80" version="1.1" xmlns="http://www.w3.org/2000/svg" xmlns:xlink="http://www.w3.org/1999/xlink">
    <!-- Generator: Sketch 52.2 (67145) - http://www.bohemiancoding.com/sketch -->
    <title>fingerprint</title>
    <desc>Created with Sketch.</desc>
    <g id="Page-1" stroke="none" stroke-width="1" fill="none" fill-rule="evenodd">
        <g id="autentificacion---1-copy-5" transform="translate(-131.000000, -392.000000)" fill="#FFFFFF">
            <g id="Group-2" transform="translate(42.000000, 358.000000)">
                <g id="Group-Copy" transform="translate(89.000000, 34.000000)">
                    <g id="fingerprint">
                        <path d="M37.5846322,39.6170572 C36.0826548,35.2994526 31.2524758,32.9790031 26.7963542,34.4344467 C22.6197779,35.7984707 20.2079612,40.0251197 21.2365794,44.177674 C24.3018393,54.5032953 35.5138256,63.7696246 45.7824463,71.643313 C46.5198648,72.2091556 47.5909496,72.0888096 48.1751051,71.3743135 C48.759101,70.6598174 48.6348941,69.6220269 47.8974756,69.0560296 C38.0409089,61.4991388 27.2955765,52.6518547 24.5095426,43.2667263 C23.7298171,40.6376775 25.2974102,37.894161 28.0108038,37.138673 C30.7241974,36.383185 33.5557312,37.90205 34.3354567,40.5310987 C36.1950477,46.8009993 45.4419151,54.5493918 54.239211,61.2944888 C54.9766295,61.8603314 56.0477143,61.7399854 56.6318698,61.0254893 C57.2158657,60.3109932 57.0916588,59.2732027 56.3542403,58.7072054 C51.7086154,55.1534419 39.4067057,45.7220622 37.5846322,39.6170572 Z" id="Path"></path>
                        <path d="M49.7152238,34.8277938 C46.0087421,23.8771137 34.000157,17.6912887 22.4920029,20.8043006 C10.726361,24.0574688 3.92523086,35.8858975 7.30134179,47.2236247 C7.30373925,47.2316337 7.30613672,47.2397966 7.30853419,47.2478056 C10.1079747,56.6187229 4.10679891,59.2176227 2.1939411,59.7893375 C1.29569069,60.0614874 0.796538371,60.9839012 1.07895981,61.8494824 C1.36138124,62.7150635 2.31860931,63.1960618 3.21685972,62.9239119 C8.43038821,61.3533904 13.4938354,56.0699568 10.5852302,46.3375592 C7.71786146,36.7470121 13.4615495,26.7326075 23.4139083,23.9695245 C23.4191827,23.9681384 23.4244572,23.9665982 23.4295718,23.965212 C33.2700489,21.2997765 43.52289,26.6739267 46.5475325,36.0828865 C46.5878099,36.2110295 46.6451893,36.3336278 46.7180722,36.4476011 C46.8953248,36.7302242 47.2602191,37.3248877 58.2190339,45.8939873 C58.9496216,46.4664722 60.0236861,46.3598918 60.6177781,45.6557215 C61.21187,44.9517052 61.101267,43.9167042 60.3705195,43.3442193 C56.3881694,40.2295132 50.5677625,35.599886 49.7152238,34.8277938 Z" id="Path"></path>
                        <path d="M43.2965777,37.7676457 C40.9805577,29.8791509 32.6337368,25.3226632 24.6270956,27.576098 C16.7653923,29.970169 12.2023629,38.0393045 14.2678069,45.8950825 C17.6549841,61.1112331 15.1229721,64.6241911 8.17428336,66.7676909 C7.29082227,67.0416756 6.79988828,67.9703084 7.07765977,68.8417254 C7.35543125,69.7131425 8.29689895,70.1973836 9.18036004,69.923399 C18.8890001,66.9463159 20.9984599,60.687774 17.56428,45.1838387 C15.8959219,39.0361622 19.4231639,32.6810202 25.5726505,30.7549095 C31.8037236,29.0100597 38.293547,32.5572852 40.0970966,38.6937976 C40.7678668,40.9497133 42.5486226,44.0458797 56.2815694,54.76679 C57.0076738,55.3339863 58.0623251,55.2133524 58.637518,54.4971469 C59.2125537,53.7809413 59.0902525,52.7406679 58.3641481,52.1733165 C45.8990151,42.4483335 43.7661326,39.3686031 43.2965777,37.7676457 Z" id="Path"></path>
                        <path d="M47.6872415,60.2127176 C42.0409197,56.0319635 32.5903383,49.0379916 30.2644529,41.151916 C29.994776,40.292169 29.0617,39.8084946 28.1805572,40.0717759 C27.321001,40.3284942 26.8243512,41.2035038 27.0574247,42.0505827 C29.6870877,50.9786418 39.6915705,58.3828745 45.6682623,62.8078315 C46.8829035,63.6611681 48.0523378,64.5740292 49.1721854,65.5429043 C49.8349587,66.1676059 50.8912977,66.1497486 51.5315458,65.5030687 C52.1561514,64.8721094 52.1561514,63.8717932 51.5315458,63.2409865 C50.3095526,62.1617622 49.0260843,61.1507621 47.6872415,60.2127176 Z" id="Path"></path>
                        <path d="M38.3001453,71.9305359 C36.5799872,68.6483021 33.4115521,66.4348742 29.8110431,66 C24.0244767,66 23.1293754,76.1174722 23.0033273,78.1444785 C22.9450899,79.1092429 23.6582989,79.9399347 24.5963204,79.9999966 L24.7052962,79.9999966 C25.6055032,80.0018017 26.3514209,79.282208 26.407265,78.3581412 C26.6217064,74.7522953 27.9627627,69.5009838 29.8110431,69.5009838 C32.3332821,69.5009838 34.1236442,72.0006081 35.5601142,74.0066091 C36.0346296,74.7024079 36.5542989,75.3644013 37.115612,75.9881587 C37.7916448,76.6598343 38.8691169,76.64047 39.5221739,75.9451636 C40.1592754,75.2667598 40.1592754,74.1913896 39.5221739,73.5129858 C39.0818032,73.0134548 38.6736626,72.4847134 38.3001453,71.9305359 Z" id="Path"></path>
                        <path d="M23.5289266,58.0484378 C23.2285754,57.2233887 22.3123919,56.7966391 21.4826436,57.0952893 C20.7021798,57.3762142 20.2679064,58.2046892 20.4834702,59.0017352 C21.8513041,63.2503137 19.1635727,71.5883891 15.1210402,72.8944066 C14.2788584,73.1565634 13.8098312,74.0478965 14.0733313,74.8853087 C14.3369813,75.7227208 15.233391,76.1890918 16.0755728,75.927084 C16.0866581,75.9236581 16.0975936,75.9200832 16.1085291,75.9163594 C22.2571153,73.9461617 25.2227277,63.3264285 23.5289266,58.0484378 Z" id="Path"></path>
                        <path d="M59.8079886,35.7466055 C57.690671,35.0798902 56.0272118,32.4133416 54.0995047,29.3699199 C50.0206551,22.883235 44.4273033,14 28.7960272,14 C12.9001857,14.0184374 0.0185799262,26.6929026 0,42.3332899 C0,43.2537539 0.758442117,44 1.69394934,44 C2.62945657,44 3.38789869,43.2537539 3.38789869,42.3332899 C3.40282615,28.5322681 14.7697709,17.3481076 28.7963448,17.3334201 C42.5405674,17.3334201 47.3546739,24.9800991 51.2235862,31.1266295 C53.500183,34.7433295 55.4650499,37.8665944 58.764813,38.9198702 C59.651409,39.2137749 60.6121659,38.7448711 60.9108739,37.8726882 C61.209582,37.000349 60.7330148,36.0550414 59.8465776,35.7611367 C59.834985,35.7572304 59.8233924,35.7536367 59.811641,35.7498867 L59.8079886,35.7466055 Z" id="Path"></path>
                        <path d="M3.33343748,56 C4.25390623,56 5.00015623,55.194045 4.99999998,54.1999325 C4.99999998,53.9199745 4.93953123,53.6438978 4.82343748,53.39364 C4.11218748,51.9536872 3.60953123,50.4045525 3.33343748,48.8000675 C3.33343748,47.805955 2.58718749,47 1.66671874,47 C0.746249996,47 0,47.805955 0,48.8000675 C0.267499999,50.9708811 0.891874996,53.0726755 1.84328124,55.0065625 C2.12593749,55.6154163 2.70265624,56 3.33343748,56 Z" id="Path"></path>
                        <path d="M2.80604117,20.7440015 C3.59705397,21.2469989 4.62930208,20.9859849 5.11145819,20.1607805 C5.11240174,20.1591399 5.1133453,20.1576634 5.11413159,20.1560229 C6.57019272,17.6500591 13.7427759,10.4998184 27.1623159,10.4998184 C40.0583406,10.4998184 49.2339318,17.3140712 50.8878248,20.1560229 C51.3685655,20.9823757 52.4004991,21.2455224 53.1926127,20.7440015 C53.9847264,20.2424807 54.2369698,19.1659416 53.756229,18.3395887 C51.4547435,14.3846775 41.2929811,7 27.1623159,7 C12.1359034,7 4.08093993,15.1862578 2.2424249,18.3430339 C1.76372848,19.1685665 2.01581467,20.2426447 2.80604117,20.7440015 Z" id="Path"></path>
                        <path d="M12.4186461,6.81755511 C13.1873759,6.47183101 13.8387111,6.12594483 14.4563701,5.78022074 C16.9809825,4.46977568 18.797136,3.51186222 26.8542422,3.51186222 C32.2945198,3.20309316 37.735899,4.10038739 42.8106169,6.14328777 C43.4518808,6.38884426 44.0964493,6.63423867 44.7712319,6.87282558 C44.9471664,6.93571397 45.1320706,6.96845484 45.3183912,6.96958943 C46.2454305,6.97137234 46.9982664,6.19872032 46.9999974,5.24388645 C47.0012563,4.50381321 46.5452115,3.84510589 45.8655506,3.60522232 C45.2142154,3.373605 44.5965563,3.13842185 43.9788973,2.91361204 C38.5309088,0.725322773 32.6945425,-0.249285283 26.8542422,0.0541350198 C17.9780494,0.0541350198 15.7555785,1.22972661 12.9355913,2.72008435 C12.3682892,3.02091132 11.7640063,3.33908122 11.0590095,3.66405862 C10.1975915,4.01675231 9.77679658,5.02199415 10.1190662,5.9092392 C10.4614932,6.79648425 11.4374732,7.22989552 12.2988911,6.87736392 C12.3429534,6.85937265 12.3862289,6.83943638 12.4285602,6.81755511 L12.4186461,6.81755511 Z" id="Path"></path>
                        <path d="M57.5947481,29.892121 C57.9246149,30.7639463 58.930832,31.2148904 59.8421198,30.8993082 C60.6992799,30.6024563 61.1762294,29.7270109 60.9394821,28.8847763 C59.9437945,26.4181984 58.7087272,24.0460591 57.2507325,21.7998378 C56.7428528,21.0098592 55.6617782,20.7632172 54.8360418,21.2491036 C54.0103055,21.73499 53.7524994,22.7692497 54.2603791,23.5592283 C55.5668489,25.5709271 56.6828022,27.6904432 57.5947481,29.892121 Z" id="Path"></path>
                    </g>
                </g>
            </g>
        </g>
    </g>
</svg>