<?xml version="1.0" encoding="UTF-8"?>
<svg width="55px" height="65px" viewBox="0 0 55 65" version="1.1" xmlns="http://www.w3.org/2000/svg" xmlns:xlink="http://www.w3.org/1999/xlink">
    <!-- Generator: Sketch 52.2 (67145) - http://www.bohemiancoding.com/sketch -->
    <title>Shape</title>
    <desc>Created with Sketch.</desc>
    <g id="Verificación-de-Identidad---Tablet" stroke="none" stroke-width="1" fill="none" fill-rule="evenodd">
        <g id="sinacofi-verificacion-tablet-06" transform="translate(-132.000000, -314.000000)" fill="#333333">
            <g id="Group-5" transform="translate(113.000000, 314.000000)">
                <g id="Group-4" transform="translate(19.000000, 0.000000)">
                    <g id="hold">
                        <g id="Capa_1">
                            <path d="M54.0552418,29.7663987 C53.5598046,28.9760237 52.7306354,28.5413175 51.7168242,28.5413175 L51.703062,28.5413175 C49.7912709,28.547904 47.4906991,29.2735121 45.6993267,30.4338264 C44.0467226,31.5041258 41.6509627,33.4877474 39.6290743,36.8698935 C39.2494685,37.504389 38.6267315,37.9347042 37.9604144,38.0367943 C37.9581207,37.8896967 37.9592675,37.7217421 37.9592675,37.5625693 C37.9592675,37.2233668 37.9604144,36.8193973 37.9455054,36.3737137 L37.9455054,12.0751728 C37.9455054,9.65355178 35.8880649,7.68420087 33.358124,7.68420087 C30.8281832,7.68420087 28.7707427,9.65355178 28.7707427,12.0751728 L28.7707427,29.090189 C28.7707427,29.3920683 28.5127025,29.6390605 28.19732,29.6390605 C27.8819376,29.6390605 27.6238974,29.3920683 27.6238974,29.090189 L27.6238974,4.39097193 C27.6238974,1.96935091 25.5664568,0 23.036516,0 C20.5065752,0 18.4491347,1.96935091 18.4491347,4.39097193 L18.4491347,29.090189 C18.4491347,29.3920683 18.1910945,29.6390605 17.875712,29.6390605 C17.5603296,29.6390605 17.3022894,29.3920683 17.3022894,29.090189 L17.3022894,9.33081534 C17.3022894,7.21217139 15.5017422,5.48871491 13.2883307,5.48871491 C11.0749192,5.48871491 9.27437201,7.21217139 9.27437201,9.33081534 L9.27437201,31.285675 C9.27437201,31.5875543 9.01633181,31.8345465 8.70094935,31.8345465 C8.38556688,31.8345465 8.12752668,31.5875543 8.12752668,31.285675 L8.12752668,17.5638877 C8.12752668,15.4452437 6.3269795,13.7217873 4.10209955,13.7217873 C1.88868806,13.7217873 0.0881408813,15.4452437 0.0881408813,17.5638877 L0.090434572,47.4192036 C1.20058086,62.7689437 11.0370733,64.8392869 20.5134563,64.8392869 C28.3647595,64.8392869 35.4167114,61.1113518 38.8939465,55.1528029 C39.3412162,54.4612248 40.551138,52.6400692 41.9858415,50.4830042 C45.5731737,45.0886952 48.5779085,40.5583099 49.0217376,39.7525666 C50.0114652,37.9588546 51.1158772,36.5570368 52.214555,35.6986018 C53.20887,34.9213997 53.816698,33.9301378 54.3109883,33.0596276 C54.5667348,32.6062598 54.7892228,30.9409837 54.0552418,29.7663987 L54.0552418,29.7663987 Z M52.2340514,32.1188619 C51.7753133,32.9191165 51.3429526,33.5459278 50.7637957,33.9981979 C49.4105182,35.0564221 48.1432541,36.6470517 46.9941151,38.7283724 C46.557167,39.5220406 42.6429839,45.4092362 40.0522603,49.305126 C38.6095288,51.4742661 37.3938728,53.3031059 36.917932,54.0407892 C33.8203027,59.3472788 27.5344434,62.6448987 20.5134563,62.6448987 C8.42341278,62.6448987 3.1697143,58.18916 2.38183155,47.344557 L2.38183155,17.5638877 C2.38183155,16.6560543 3.15365846,15.9172732 4.11356801,15.9172732 C5.0620091,15.9172732 5.83383601,16.6560543 5.83383601,17.5638877 L5.83383601,31.285675 C5.83383601,32.7994625 7.11944963,34.0300324 8.70094935,34.0300324 C10.2824491,34.0300324 11.5680627,32.7994625 11.5680627,31.285675 L11.5680627,9.33081534 C11.5680627,8.4229819 12.3398896,7.68420087 13.2883307,7.68420087 C14.2367718,7.68420087 15.0085987,8.4229819 15.0085987,9.33081534 L15.0085987,29.090189 C15.0085987,30.6039766 16.2942123,31.8345465 17.875712,31.8345465 C19.4572117,31.8345465 20.7428254,30.6039766 20.7428254,29.090189 L20.7428254,4.39097193 C20.7428254,3.18016142 21.7715456,2.19548596 23.036516,2.19548596 C24.3014864,2.19548596 25.3302067,3.18016142 25.3302067,4.39097193 L25.3302067,29.090189 C25.3302067,30.6039766 26.6158203,31.8345465 28.19732,31.8345465 C29.7788198,31.8345465 31.0644334,30.6039766 31.0644334,29.090189 L31.0644334,12.0751728 C31.0644334,10.8643623 32.0931536,9.87968683 33.358124,9.87968683 C34.6230945,9.87968683 35.6518147,10.8643623 35.6518147,12.0751728 L35.6518147,36.4077437 C35.6667237,36.8589161 35.6655769,37.2398329 35.6655769,37.5603739 C35.6632832,38.5428538 35.6621363,39.2519958 36.2275311,39.7822056 C36.7011782,40.2245961 37.3147405,40.2520396 37.748248,40.2564306 C39.3091045,40.2224006 40.7931224,39.3420107 41.6199978,37.9599523 C43.4216919,34.9433546 45.5307404,33.1913568 46.9837935,32.2527865 C48.3967069,31.3372689 50.2534495,30.7422922 51.7122368,30.7368035 L51.7168242,30.7368035 C51.9622491,30.7368035 52.0184445,30.8059613 52.051703,30.8465778 C52.2776315,31.1210135 52.2879531,31.8114939 52.2340514,32.1188619 L52.2340514,32.1188619 Z" id="Shape"></path>
                        </g>
                    </g>
                </g>
            </g>
        </g>
    </g>
</svg>