<?xml version="1.0" encoding="UTF-8"?>
<svg width="55px" height="65px" viewBox="0 0 55 65" version="1.1" xmlns="http://www.w3.org/2000/svg" xmlns:xlink="http://www.w3.org/1999/xlink">
    <!-- Generator: Sketch 52.2 (67145) - http://www.bohemiancoding.com/sketch -->
    <title>Group 3</title>
    <desc>Created with Sketch.</desc>
    <g id="Verificación-de-Identidad---Tablet" stroke="none" stroke-width="1" fill="none" fill-rule="evenodd">
        <g id="sinacofi-verificacion-tablet-06" transform="translate(-276.000000, -314.000000)" fill="#333333">
            <g id="Group-5" transform="translate(113.000000, 314.000000)">
                <g id="Group-3" transform="translate(162.000000, 0.000000)">
                    <g id="hold-copy" transform="translate(28.960314, 32.500000) scale(-1, 1) translate(-28.960314, -32.500000) translate(0.960314, 0.000000)">
                        <g id="Capa_1">
                            <path d="M55.3973636,29.7663987 C54.8987907,28.9760237 54.0643736,28.5413175 53.0441458,28.5413175 L53.0302966,28.5413175 C51.1064055,28.547904 48.7912732,29.2735121 46.9885629,30.4338264 C45.3254993,31.5041258 42.9145764,33.4877474 40.8798913,36.8698935 C40.4978829,37.504389 39.8712045,37.9347042 39.2006702,38.0367943 C39.198362,37.8896967 39.1995161,37.7217421 39.1995161,37.5625693 C39.1995161,37.2233668 39.2006702,36.8193973 39.1856668,36.3737137 L39.1856668,12.0751728 C39.1856668,9.65355178 37.1152045,7.68420087 34.5692514,7.68420087 C32.0232983,7.68420087 29.952836,9.65355178 29.952836,12.0751728 L29.952836,29.090189 C29.952836,29.3920683 29.6931627,29.6390605 29.3757841,29.6390605 C29.0584055,29.6390605 28.7987322,29.3920683 28.7987322,29.090189 L28.7987322,4.39097193 C28.7987322,1.96935091 26.7282699,0 24.1823168,0 C21.6363637,0 19.5659014,1.96935091 19.5659014,4.39097193 L19.5659014,29.090189 C19.5659014,29.3920683 19.306228,29.6390605 18.9888494,29.6390605 C18.6714709,29.6390605 18.4117975,29.3920683 18.4117975,29.090189 L18.4117975,9.33081534 C18.4117975,7.21217139 16.5998545,5.48871491 14.372434,5.48871491 C12.1450136,5.48871491 10.3330706,7.21217139 10.3330706,9.33081534 L10.3330706,31.285675 C10.3330706,31.5875543 10.0733972,31.8345465 9.75601865,31.8345465 C9.43864009,31.8345465 9.17896672,31.5875543 9.17896672,31.285675 L9.17896672,17.5638877 C9.17896672,15.4452437 7.36702368,13.7217873 5.12806221,13.7217873 C2.90064178,13.7217873 1.08869874,15.4452437 1.08869874,17.5638877 L1.09100694,47.4192036 C2.20817947,62.7689437 12.1069282,64.8392869 21.6432883,64.8392869 C29.5442833,64.8392869 36.6408678,61.1113518 40.1401107,55.1528029 C40.5902112,54.4612248 41.8077908,52.6400692 43.2515747,50.4830042 C46.8616115,45.0886952 49.8853636,40.5583099 50.3320018,39.7525666 C51.3279934,37.9588546 52.4393954,36.5570368 53.5450269,35.6986018 C54.545635,34.9213997 55.15731,33.9301378 55.6547288,33.0596276 C55.9120939,32.6062598 56.1359901,30.9409837 55.3973636,29.7663987 L55.3973636,29.7663987 Z M53.5646467,32.1188619 C53.1030051,32.9191165 52.667908,33.5459278 52.0850855,33.9981979 C50.723243,35.0564221 49.4479582,36.6470517 48.2915462,38.7283724 C47.8518326,39.5220406 43.9128762,45.4092362 41.3057556,49.305126 C39.8538929,51.4742661 38.6305429,53.3031059 38.1515898,54.0407892 C35.0343553,59.3472788 28.7087121,62.6448987 21.6432883,62.6448987 C9.47672551,62.6448987 4.18977578,58.18916 3.39690643,47.344557 L3.39690643,17.5638877 C3.39690643,16.6560543 4.17361833,15.9172732 5.13960325,15.9172732 C6.09404713,15.9172732 6.87075902,16.6560543 6.87075902,17.5638877 L6.87075902,31.285675 C6.87075902,32.7994625 8.16450944,34.0300324 9.75601865,34.0300324 C11.3475279,34.0300324 12.6412783,32.7994625 12.6412783,31.285675 L12.6412783,9.33081534 C12.6412783,8.4229819 13.4179902,7.68420087 14.372434,7.68420087 C15.3268779,7.68420087 16.1035898,8.4229819 16.1035898,9.33081534 L16.1035898,29.090189 C16.1035898,30.6039766 17.3973402,31.8345465 18.9888494,31.8345465 C20.5803587,31.8345465 21.8741091,30.6039766 21.8741091,29.090189 L21.8741091,4.39097193 C21.8741091,3.18016142 22.9093402,2.19548596 24.1823168,2.19548596 C25.4552933,2.19548596 26.4905245,3.18016142 26.4905245,4.39097193 L26.4905245,29.090189 C26.4905245,30.6039766 27.7842749,31.8345465 29.3757841,31.8345465 C30.9672933,31.8345465 32.2610437,30.6039766 32.2610437,29.090189 L32.2610437,12.0751728 C32.2610437,10.8643623 33.2962749,9.87968683 34.5692514,9.87968683 C35.842228,9.87968683 36.8774591,10.8643623 36.8774591,12.0751728 L36.8774591,36.4077437 C36.8924625,36.8589161 36.8913084,37.2398329 36.8913084,37.5603739 C36.8890002,38.5428538 36.887846,39.2519958 37.4568192,39.7822056 C37.9334641,40.2245961 38.5509097,40.2520396 38.987161,40.2564306 C40.5578963,40.2224006 42.0513067,39.3420107 42.8834155,37.9599523 C44.6965127,34.9433546 46.8189097,33.1913568 48.2811593,32.2527865 C49.7030152,31.3372689 51.5715093,30.7422922 53.0395294,30.7368035 L53.0441458,30.7368035 C53.2911241,30.7368035 53.3476752,30.8059613 53.3811442,30.8465778 C53.6085026,31.1210135 53.6188896,31.8114939 53.5646467,32.1188619 L53.5646467,32.1188619 Z" id="Shape"></path>
                        </g>
                    </g>
                </g>
            </g>
        </g>
    </g>
</svg>