<?xml version="1.0" encoding="UTF-8"?>
<svg width="22px" height="25px" viewBox="0 0 22 25" version="1.1" xmlns="http://www.w3.org/2000/svg" xmlns:xlink="http://www.w3.org/1999/xlink">
    <!-- Generator: Sketch 52.2 (67145) - http://www.bohemiancoding.com/sketch -->
    <title>shield</title>
    <desc>Created with Sketch.</desc>
    <g id="Symbols" stroke="none" stroke-width="1" fill="none" fill-rule="evenodd">
        <g id="header" transform="translate(-689.000000, -18.000000)">
            <g id="Group-4" transform="translate(35.000000, 18.000000)">
                <g id="shield" transform="translate(654.000000, 0.000000)">
                    <path d="M20.1892853,16.6948318 C19.5173264,18.5159683 18.501091,20.0994492 17.1684265,21.4008331 C15.6515122,22.8820801 13.6651993,24.0591049 11.2646103,24.8987198 C11.1858368,24.9261856 11.1036301,24.9486923 11.0210419,24.9652862 C10.9119415,24.9868393 10.8009338,24.9984741 10.6908798,25 L10.6693268,25 C10.5520249,25 10.4341507,24.9881744 10.3172302,24.9652862 C10.234642,24.9486923 10.1535797,24.9261856 10.0751877,24.899292 C7.6717377,24.0610123 5.68294526,22.8845596 4.16450498,21.4033127 C2.83126831,20.1019287 1.81522368,18.5194016 1.14421846,16.6982651 C-0.0759125,13.3871079 -0.00648496094,9.73949434 0.0494003418,6.80828096 L0.0503540039,6.76326753 C0.061607373,6.521225 0.0688552734,6.26697539 0.0728607422,5.98621367 C0.0932693359,4.60777285 1.18923188,3.46736909 2.56786348,3.39050293 C5.44223784,3.23009492 7.6658249,2.29263306 9.56573486,0.440788281 L9.58232881,0.425529492 C9.89780425,0.136184668 10.2952957,-0.00572207031 10.6908798,0.000190734863 C11.0723496,0.00514985352 11.4522934,0.14686582 11.7565155,0.425529492 L11.772728,0.440788281 C13.6730194,2.29263306 15.8966064,3.23009492 18.7709809,3.39050293 C20.1496124,3.46736909 21.245575,4.60777285 21.2659836,5.98621367 C21.269989,6.26888276 21.2772369,6.52275088 21.2884903,6.76326753 L21.2890625,6.78234102 C21.3447571,9.71908569 21.4138031,13.3739472 20.1892853,16.6948318 Z" id="Path" fill="#00DD80"></path>
                    <path d="M20.1892853,16.6948318 C19.5173264,18.5159683 18.501091,20.0994492 17.1684265,21.4008331 C15.6515122,22.8820801 13.6651993,24.0591049 11.2646103,24.8987198 C11.1858368,24.9261856 11.1036301,24.9486923 11.0210419,24.9652862 C10.9119415,24.9868393 10.8009338,24.9984741 10.6908798,25 L10.6908798,0.000190734863 C11.0723496,0.00514985352 11.4522934,0.14686582 11.7565155,0.425529492 L11.772728,0.440788281 C13.6730194,2.29263306 15.8966064,3.23009492 18.7709809,3.39050293 C20.1496124,3.46736909 21.245575,4.60777285 21.2659836,5.98621367 C21.269989,6.26888276 21.2772369,6.52275088 21.2884903,6.76326753 L21.2890625,6.78234102 C21.3447571,9.71908569 21.4138031,13.3739472 20.1892853,16.6948318 Z" id="Path" fill="#00AA63"></path>
                    <path d="M16.8994903,12.5 C16.8994903,15.9280777 14.1160965,18.7185288 10.6908798,18.7307358 L10.6689453,18.7307358 C7.23361968,18.7307358 4.43820952,15.9355164 4.43820952,12.5 C4.43820952,9.06467437 7.23361968,6.26945498 10.6689453,6.26945498 L10.6908798,6.26945498 C14.1160965,6.28166201 16.8994903,9.07211304 16.8994903,12.5 Z" id="Path" fill="#FFFFFF"></path>
                    <path d="M16.8994903,12.5 C16.8994903,15.9280777 14.1160965,18.7185288 10.6908798,18.7307358 L10.6908798,6.26945498 C14.1160965,6.28166201 16.8994903,9.07211304 16.8994903,12.5 Z" id="Path" fill="#E1EBF0"></path>
                    <path d="M13.4969711,11.6027832 L10.6908798,14.409256 L10.0845337,15.0156021 C9.9412918,15.158844 9.75341797,15.2303696 9.56573486,15.2303696 C9.37786104,15.2303696 9.19017793,15.158844 9.04674531,15.0156021 L7.74307251,13.7113571 C7.45658877,13.4248733 7.45658877,12.9608154 7.74307251,12.6741409 C8.0291748,12.3876572 8.49380493,12.3876572 8.78028867,12.6741409 L9.56573486,13.4595871 L12.4597549,10.565567 C12.7462387,10.2788925 13.2108688,10.2788925 13.4969711,10.565567 C13.7834549,10.8520508 13.7834549,11.3166809 13.4969711,11.6027832 Z" id="Path" fill="#B4D2D7"></path>
                    <path d="M13.4969711,11.6027832 L10.6908798,14.409256 L10.6908798,12.3342514 L12.4597549,10.565567 C12.7462387,10.2788925 13.2108688,10.2788925 13.4969711,10.565567 C13.7834549,10.8520508 13.7834549,11.3166809 13.4969711,11.6027832 Z" id="Path" fill="#6FA5AA"></path>
                </g>
            </g>
        </g>
    </g>
</svg>